<svg version='1.1' baseProfile='full' xmlns='http://www.w3.org/2000/svg' width='100' height='100'>
  <g transform="translate(-50,-50)">
    <circle cx="55" fill="white" cy="145" r="4"/>
    <circle cx="65" fill="white" cy="145" r="4"/>
    <circle cx="75" fill="white" cy="145" r="4"/>
    <circle cx="85" fill="white" cy="145" r="4"/>
    <circle cx="95" fill="white" cy="145" r="4"/>
    <circle cx="105" fill="white" cy="145" r="4"/>
    <circle cx="115" fill="white" cy="145" r="4"/>
    <circle cx="125" fill="white" cy="145" r="4"/>
    <circle cx="135" fill="white" cy="145" r="4"/>
    <circle cx="145" fill="white" cy="145" r="4"/>
    <circle cx="55" fill="white" cy="135" r="4"/>
    <circle cx="65" fill="white" cy="135" r="4"/>
    <circle cx="75" fill="white" cy="135" r="4"/>
    <circle cx="85" fill="white" cy="135" r="4"/>
    <circle cx="95" fill="white" cy="135" r="4"/>
    <circle cx="105" fill="white" cy="135" r="4"/>
    <circle cx="115" fill="white" cy="135" r="4"/>
    <circle cx="125" fill="white" cy="135" r="4"/>
    <circle cx="135" fill="white" cy="135" r="4"/>
    <circle cx="145" fill="white" cy="135" r="4"/>
    <circle cx="55" fill="white" cy="125" r="4"/>
    <circle cx="65" fill="white" cy="125" r="4"/>
    <circle cx="75" fill="white" cy="125" r="4"/>
    <circle cx="85" fill="white" cy="125" r="4"/>
    <circle cx="95" fill="white" cy="125" r="4"/>
    <circle cx="105" fill="white" cy="125" r="4"/>
    <circle cx="115" fill="white" cy="125" r="4"/>
    <circle cx="125" fill="white" cy="125" r="4"/>
    <circle cx="135" fill="white" cy="125" r="4"/>
    <circle cx="145" fill="white" cy="125" r="4"/>
    <circle cx="55" fill="white" cy="115" r="4"/>
    <circle cx="65" fill="white" cy="115" r="4"/>
    <circle cx="75" fill="white" cy="115" r="4"/>
    <circle cx="85" fill="white" cy="115" r="4"/>
    <circle cx="95" fill="white" cy="115" r="4"/>
    <circle cx="105" fill="white" cy="115" r="4"/>
    <circle cx="115" fill="white" cy="115" r="4"/>
    <circle cx="125" fill="white" cy="115" r="4"/>
    <circle cx="135" fill="white" cy="115" r="4"/>
    <circle cx="145" fill="white" cy="115" r="4"/>
    <circle cx="55" fill="white" cy="105" r="4"/>
    <circle cx="65" fill="white" cy="105" r="4"/>
    <circle cx="75" fill="white" cy="105" r="4"/>
    <circle cx="85" fill="white" cy="105" r="4"/>
    <circle cx="95" fill="white" cy="105" r="4"/>
    <circle cx="105" fill="white" cy="105" r="4"/>
    <circle cx="115" fill="white" cy="105" r="4"/>
    <circle cx="125" fill="white" cy="105" r="4"/>
    <circle cx="135" fill="white" cy="105" r="4"/>
    <circle cx="145" fill="white" cy="105" r="4"/>
    <circle cx="55" fill="white" cy="95" r="4"/>
    <circle cx="65" fill="white" cy="95" r="4"/>
    <circle cx="75" fill="white" cy="95" r="4"/>
    <circle cx="85" fill="white" cy="95" r="4"/>
    <circle cx="95" fill="white" cy="95" r="4"/>
    <circle cx="105" fill="white" cy="95" r="4"/>
    <circle cx="115" fill="white" cy="95" r="4"/>
    <circle cx="125" fill="white" cy="95" r="4"/>
    <circle cx="135" fill="white" cy="95" r="4"/>
    <circle cx="145" fill="white" cy="95" r="4"/>
    <circle cx="55" fill="white" cy="85" r="4"/>
    <circle cx="65" fill="white" cy="85" r="4"/>
    <circle cx="75" fill="white" cy="85" r="4"/>
    <circle cx="85" fill="white" cy="85" r="4"/>
    <circle cx="95" fill="white" cy="85" r="4"/>
    <circle cx="105" fill="white" cy="85" r="4"/>
    <circle cx="115" fill="white" cy="85" r="4"/>
    <circle cx="125" fill="white" cy="85" r="4"/>
    <circle cx="135" fill="white" cy="85" r="4"/>
    <circle cx="145" fill="white" cy="85" r="4"/>
    <circle cx="55" fill="white" cy="75" r="4"/>
    <circle cx="65" fill="white" cy="75" r="4"/>
    <circle cx="75" fill="white" cy="75" r="4"/>
    <circle cx="85" fill="white" cy="75" r="4"/>
    <circle cx="95" fill="white" cy="75" r="4"/>
    <circle cx="105" fill="white" cy="75" r="4"/>
    <circle cx="115" fill="white" cy="75" r="4"/>
    <circle cx="125" fill="white" cy="75" r="4"/>
    <circle cx="135" fill="white" cy="75" r="4"/>
    <circle cx="145" fill="white" cy="75" r="4"/>
    <circle cx="55" fill="white" cy="65" r="4"/>
    <circle cx="65" fill="white" cy="65" r="4"/>
    <circle cx="75" fill="white" cy="65" r="4"/>
    <circle cx="85" fill="white" cy="65" r="4"/>
    <circle cx="95" fill="white" cy="65" r="4"/>
    <circle cx="105" fill="white" cy="65" r="4"/>
    <circle cx="115" fill="white" cy="65" r="4"/>
    <circle cx="125" fill="white" cy="65" r="4"/>
    <circle cx="135" fill="white" cy="65" r="4"/>
    <circle cx="145" fill="white" cy="65" r="4"/>
    <circle cx="55" fill="white" cy="55" r="4"/>
    <circle cx="65" fill="white" cy="55" r="4"/>
    <circle cx="75" fill="white" cy="55" r="4"/>
    <circle cx="85" fill="white" cy="55" r="4"/>
    <circle cx="95" fill="white" cy="55" r="4"/>
    <circle cx="105" fill="white" cy="55" r="4"/>
    <circle cx="115" fill="white" cy="55" r="4"/>
    <circle cx="125" fill="white" cy="55" r="4"/>
    <circle cx="135" fill="white" cy="55" r="4"/>
    <circle cx="145" fill="white" cy="55" r="4"/>
  </g>
</svg>